<?xml version="1.0" encoding="UTF-8"?>
<svg width="100px" height="100px" viewBox="0 0 100 100" version="1.1" xmlns="http://www.w3.org/2000/svg" xmlns:xlink="http://www.w3.org/1999/xlink">
    <!-- Generator: Sketch 53 (72520) - https://sketchapp.com -->
    <title>noun_Email_1198076</title>
    <desc>Created with Sketch.</desc>
    <g id="Page-1" stroke="none" stroke-width="1" fill="none" fill-rule="evenodd">
        <g id="noun_Email_1198076" fill="#000000" fill-rule="nonzero">
            <path d="M50,0 C22.3857625,-1.69088438e-15 3.38176876e-15,22.3857625 0,50 C-3.38176876e-15,77.6142375 22.3857625,100 50,100 C77.6142375,100 100,77.6142375 100,50 C100,36.7391755 94.732158,24.0214799 85.3553391,14.6446609 C75.9785201,5.26784202 63.2608245,8.11991313e-16 50,0 Z M25.11,34.1 C25.2950051,33.2123766 25.6969724,32.3843926 26.28,31.69 C26.9393526,30.8625006 27.9419563,30.383315 29,30.39 C31.94,30.39 34.88,30.39 37.82,30.39 L70.35,30.39 C72.582832,30.3112373 74.5323949,31.8896581 74.92,34.09 L74.92,34.21 C75.1197887,35.8608618 74.7031602,37.5273755 73.75,38.89 C72.6944543,40.4748552 71.3348552,41.8344543 69.75,42.89 C65.12,46 60.5,49.23 55.91,52.46 C54.6368505,53.4490565 53.2625167,54.3004731 51.81,55 C50.6386246,55.5596534 49.2725608,55.537441 48.12,54.94 C46.8509555,54.2689609 45.6221957,53.5243592 44.44,52.71 C40.5066667,50.0433333 36.5933333,47.3266667 32.7,44.56 C30.896282,43.44981 29.219614,42.1453623 27.7,40.67 C26.5877013,39.578929 25.7512863,38.2386082 25.26,36.76 C25.0001977,35.8976983 24.9487886,34.986043 25.11,34.1 Z M70.41,69.66 C58.7633333,69.66 47.1166667,69.66 35.47,69.66 L29.54,69.66 C28.3279525,69.6520696 27.1687006,69.1629665 26.3172798,68.3002934 C25.465859,67.4376204 24.9920173,66.2720472 25,65.06 C25,60.06 25,54.97 25,49.92 C25,47.65 25,45.38 24.9999008,42.92 C27.05,45.19 29.59,46.53 31.91,48.16 C35.86,50.96 39.83,53.72 43.79,56.51 C45.0170531,57.3708731 46.3650697,58.0448814 47.79,58.51 C49.2455375,58.9626091 50.8071649,58.9416007 52.25,58.45 C53.7912774,57.936454 55.242302,57.1839459 56.55,56.22 C61.69,52.62 66.87,49.06 72.01,45.45 C73.01,44.74 73.93,43.91 74.93,43.1 C74.93,44.1 74.93,45.2 74.93,46.26 C74.93,52.53 74.88,58.8 74.93,65.06 C74.893884,67.5545107 72.9034932,69.5801296 70.41,69.66 Z" id="Shape"></path>
        </g>
    </g>
</svg>