<?xml version="1.0" encoding="UTF-8"?>
<svg width="126px" height="126px" viewBox="0 0 126 126" version="1.1" xmlns="http://www.w3.org/2000/svg" xmlns:xlink="http://www.w3.org/1999/xlink">
    <!-- Generator: Sketch 53 (72520) - https://sketchapp.com -->
    <title>noun_linkedin_2386251</title>
    <desc>Created with Sketch.</desc>
    <g id="Page-1" stroke="none" stroke-width="1" fill="none" fill-rule="evenodd">
        <g id="noun_linkedin_2386251" fill="#000000" fill-rule="nonzero">
            <g id="Group">
                <rect id="Rectangle" x="34" y="48" width="8" height="40"></rect>
                <rect id="Rectangle" x="34" y="30" width="8" height="8"></rect>
                <path d="M62,73 L62,68 C62,61.9 66.9,57 73,57 C79.1,57 84,61.9 84,68 L84,88 L92,88 L92,68 C92,57.5 83.5,49 73,49 C68.9,49 65.1,50.3 62,52.5 L62,48 L54,48 L54,68 L54,73 L54,88 L62,88 L62,73 Z" id="Path"></path>
                <path d="M126,0 L0,0 L0,126 L126,126 L126,0 Z M118,118 L8,118 L8,8 L118,8 L118,118 Z" id="Shape"></path>
            </g>
        </g>
    </g>
</svg>